<svg width="37" height="39" viewBox="0 0 37 39" fill="none" xmlns="http://www.w3.org/2000/svg">
<path d="M34.8333 11.3541C34.8333 6.24996 32.7917 2.16663 28.7083 2.16663C26.7804 2.16663 25.5352 2.62173 24.2205 3.10222C22.7507 3.6394 21.1944 4.20829 18.5 4.20829C15.8056 4.20829 14.2492 3.6394 12.7794 3.10222C11.4648 2.62173 10.2195 2.16663 8.29166 2.16663C4.20832 2.16663 2.16666 6.24996 2.16666 11.3541C2.16666 14.6177 3.00139 16.6294 3.87024 18.7231C4.36022 19.904 4.86106 21.1108 5.22916 22.5833C5.37277 23.1578 5.47599 23.8534 5.55868 24.625M33.1298 18.7231C32.6398 19.904 32.1389 21.1108 31.7708 22.5833C31.4666 23.8001 31.3437 25.5609 31.213 27.4333C30.9052 31.8443 30.554 36.875 27.6875 36.875C25.852 36.875 25.048 33.9874 24.1626 30.8081C23.0782 26.9145 21.872 22.5833 18.5 22.5833C15.1282 22.5833 13.9219 26.9145 12.8375 30.8081C11.9521 33.9874 11.148 36.875 9.31255 36.875C7.62366 36.875 6.80794 35.1285 6.35977 32.7916" stroke="#8F837B" stroke-width="3.0625" stroke-linecap="round" stroke-linejoin="round"/>
</svg>
