<svg width="25" height="24" viewBox="0 0 25 24" fill="none" xmlns="http://www.w3.org/2000/svg">
<path d="M3.75 20.2188H5.4375L15.5625 10.1094L13.9219 8.4375L3.75 18.6406V20.2188ZM1.89062 24C1.38021 24 0.9375 23.8125 0.5625 23.4375C0.1875 23.0625 0 22.6198 0 22.1094V18.5918C0 18.0931 0.0962395 17.6117 0.288719 17.1477C0.481198 16.6836 0.759958 16.2698 1.125 15.9062L16.1875 0.828125C16.4578 0.551396 16.7624 0.344198 17.1012 0.206532C17.44 0.068844 17.7965 0 18.1709 0C18.5244 0 18.8785 0.0703125 19.2334 0.210938C19.5882 0.351562 19.9219 0.557292 20.2344 0.828125L23.2031 3.71875C23.474 4 23.6797 4.32031 23.8203 4.67969C23.9609 5.03906 24.0312 5.4091 24.0312 5.78981C24.0312 6.16952 23.9621 6.53582 23.8237 6.88872C23.6853 7.24162 23.4785 7.55475 23.2031 7.82812L8.15625 22.875C7.79352 23.24 7.38067 23.5188 6.91769 23.7113C6.45471 23.9038 5.97173 24 5.46875 24H1.89062ZM14.75 9.25L13.9219 8.4375L15.5625 10.1094L14.75 9.25Z" fill="#8F837B"/>
</svg>
