<svg width="24" height="24" viewBox="0 0 24 24" fill="none" xmlns="http://www.w3.org/2000/svg">
<path d="M5.64948 23.5381C4.76812 23.5381 4.02174 23.2324 3.41032 22.621C2.7989 22.0095 2.4932 21.2632 2.4932 20.3818V4.78809H2.44632C2.01742 4.78809 1.64717 4.63228 1.33557 4.32068C1.02397 4.00908 0.868164 3.63883 0.868164 3.20993C0.868164 2.78103 1.02397 2.41078 1.33557 2.09918C1.64717 1.78758 2.01742 1.63177 2.44632 1.63177H7.90626V1.61615C7.90626 1.18725 8.06206 0.817004 8.37366 0.5054C8.68527 0.193816 9.05552 0.0380249 9.48441 0.0380249H14.5116C14.9405 0.0380249 15.3107 0.193816 15.6223 0.5054C15.9339 0.817004 16.0897 1.18725 16.0897 1.61615V1.63177H21.585C22.0139 1.63177 22.3842 1.78758 22.6958 2.09918C23.0074 2.41078 23.1632 2.78103 23.1632 3.20993C23.1632 3.63883 23.0074 4.00908 22.6958 4.32068C22.3842 4.63228 22.0139 4.78809 21.585 4.78809H21.5381V20.3818C21.5381 21.2632 21.2324 22.0095 20.621 22.621C20.0096 23.2324 19.2632 23.5381 18.3819 23.5381H5.64948ZM18.3819 4.78809H5.64948V20.3818H18.3819V4.78809ZM9.4722 18.123C9.84222 18.123 10.1624 17.9878 10.4328 17.7174C10.7032 17.447 10.8384 17.1268 10.8384 16.7568V8.3954C10.8384 8.02538 10.7032 7.70518 10.4328 7.43481C10.1624 7.16443 9.84222 7.02924 9.4722 7.02924C9.10217 7.02924 8.77903 7.16443 8.50276 7.43481C8.22649 7.70518 8.08835 8.02538 8.08835 8.3954V16.7568C8.08835 17.1268 8.22649 17.447 8.50276 17.7174C8.77903 17.9878 9.10217 18.123 9.4722 18.123ZM14.5768 18.123C14.9468 18.123 15.267 17.9878 15.5374 17.7174C15.8078 17.447 15.943 17.1268 15.943 16.7568V8.3954C15.943 8.02538 15.8078 7.70518 15.5374 7.43481C15.267 7.16443 14.9468 7.02924 14.5768 7.02924C14.2068 7.02924 13.8837 7.16443 13.6074 7.43481C13.3311 7.70518 13.193 8.02538 13.193 8.3954V16.7568C13.193 17.1268 13.3311 17.447 13.6074 17.7174C13.8837 17.9878 14.2068 18.123 14.5768 18.123Z" fill="#8F837B"/>
</svg>
